<mxfile host="app.diagrams.net" modified="2021-12-04T12:52:00.771Z" agent="5.0 (Windows)" etag="yPz9xIccHDqMwZHt4D74" version="15.9.1" type="github">
  <diagram id="fImfwEfo9sQ7-Hv0iJXM" name="Page-1">
    <mxGraphModel dx="5407" dy="2560" grid="0" gridSize="10" guides="1" tooltips="1" connect="1" arrows="1" fold="1" page="0" pageScale="1" pageWidth="1100" pageHeight="850" math="0" shadow="0">
      <root>
        <mxCell id="0" />
        <mxCell id="1" parent="0" />
        <mxCell id="vKSvV3eFEB5RMygRF8wU-1" value="" style="endArrow=none;html=1;rounded=0;sketch=0;hachureGap=4;fontFamily=Architects Daughter;fontSource=https%3A%2F%2Ffonts.googleapis.com%2Fcss%3Ffamily%3DArchitects%2BDaughter;fontSize=22;startSize=14;endSize=14;sourcePerimeterSpacing=8;targetPerimeterSpacing=8;curved=1;strokeWidth=1;" parent="1" edge="1">
          <mxGeometry width="50" height="50" relative="1" as="geometry">
            <mxPoint x="35" y="10" as="sourcePoint" />
            <mxPoint x="1035" y="10" as="targetPoint" />
          </mxGeometry>
        </mxCell>
        <mxCell id="vKSvV3eFEB5RMygRF8wU-12" style="edgeStyle=none;curved=1;rounded=0;sketch=0;hachureGap=4;orthogonalLoop=1;jettySize=auto;html=1;fontFamily=Architects Daughter;fontSource=https%3A%2F%2Ffonts.googleapis.com%2Fcss%3Ffamily%3DArchitects%2BDaughter;fontSize=22;endArrow=open;startSize=14;endSize=14;sourcePerimeterSpacing=8;targetPerimeterSpacing=8;entryX=0;entryY=0.5;entryDx=0;entryDy=0;entryPerimeter=0;strokeWidth=3;" parent="1" source="vKSvV3eFEB5RMygRF8wU-3" edge="1">
          <mxGeometry relative="1" as="geometry">
            <mxPoint x="396.72" y="214.72000000000003" as="targetPoint" />
          </mxGeometry>
        </mxCell>
        <mxCell id="vKSvV3eFEB5RMygRF8wU-3" value="&lt;font style=&quot;font-size: 30px;&quot;&gt;masuk ke menu pemilihan perguruan tinggi&lt;/font&gt;" style="rounded=1;whiteSpace=wrap;html=1;sketch=0;hachureGap=4;fontFamily=Helvetica;fontSize=30;strokeWidth=1;fontStyle=1" parent="1" vertex="1">
          <mxGeometry x="10" y="150.14" width="242.5" height="129.72" as="geometry" />
        </mxCell>
        <mxCell id="vKSvV3eFEB5RMygRF8wU-4" value="" style="endArrow=none;html=1;rounded=0;sketch=0;hachureGap=4;fontFamily=Architects Daughter;fontSource=https%3A%2F%2Ffonts.googleapis.com%2Fcss%3Ffamily%3DArchitects%2BDaughter;fontSize=22;startSize=14;endSize=14;sourcePerimeterSpacing=8;targetPerimeterSpacing=8;curved=1;strokeWidth=5;" parent="1" edge="1">
          <mxGeometry width="50" height="50" relative="1" as="geometry">
            <mxPoint x="370" y="2160" as="sourcePoint" />
            <mxPoint x="369" y="-80" as="targetPoint" />
          </mxGeometry>
        </mxCell>
        <mxCell id="vKSvV3eFEB5RMygRF8wU-10" style="edgeStyle=none;curved=1;rounded=0;sketch=0;hachureGap=4;orthogonalLoop=1;jettySize=auto;html=1;fontFamily=Architects Daughter;fontSource=https%3A%2F%2Ffonts.googleapis.com%2Fcss%3Ffamily%3DArchitects%2BDaughter;fontSize=22;endArrow=open;startSize=14;endSize=14;sourcePerimeterSpacing=8;targetPerimeterSpacing=8;strokeWidth=3;exitX=0.5;exitY=1;exitDx=0;exitDy=0;" parent="1" source="vKSvV3eFEB5RMygRF8wU-5" edge="1">
          <mxGeometry relative="1" as="geometry">
            <mxPoint x="115.86" y="80" as="sourcePoint" />
            <mxPoint x="135" y="150" as="targetPoint" />
          </mxGeometry>
        </mxCell>
        <mxCell id="vKSvV3eFEB5RMygRF8wU-5" value="" style="ellipse;whiteSpace=wrap;html=1;aspect=fixed;rounded=1;sketch=0;hachureGap=4;fontFamily=Architects Daughter;fontSource=https%3A%2F%2Ffonts.googleapis.com%2Fcss%3Ffamily%3DArchitects%2BDaughter;fontSize=22;fillColor=#000000;strokeWidth=1;" parent="1" vertex="1">
          <mxGeometry x="104.84" y="20" width="60" height="60" as="geometry" />
        </mxCell>
        <mxCell id="vKSvV3eFEB5RMygRF8wU-6" value="&lt;font style=&quot;font-size: 35px;&quot;&gt;USER&lt;/font&gt;" style="text;html=1;strokeColor=none;fillColor=none;align=center;verticalAlign=middle;whiteSpace=wrap;rounded=0;sketch=0;hachureGap=4;fontFamily=Architects Daughter;fontSource=https%3A%2F%2Ffonts.googleapis.com%2Fcss%3Ffamily%3DArchitects%2BDaughter;fontSize=35;strokeWidth=1;" parent="1" vertex="1">
          <mxGeometry x="110" y="-50" width="110" height="30" as="geometry" />
        </mxCell>
        <mxCell id="vKSvV3eFEB5RMygRF8wU-7" value="SISTEM" style="text;html=1;align=center;verticalAlign=middle;resizable=0;points=[];autosize=1;strokeColor=none;fillColor=none;rounded=1;sketch=0;hachureGap=4;fontFamily=Architects Daughter;fontSource=https%3A%2F%2Ffonts.googleapis.com%2Fcss%3Ffamily%3DArchitects%2BDaughter;fontSize=35;strokeWidth=1;" parent="1" vertex="1">
          <mxGeometry x="475" y="-60" width="140" height="50" as="geometry" />
        </mxCell>
        <mxCell id="vKSvV3eFEB5RMygRF8wU-8" value="" style="endArrow=none;html=1;rounded=0;sketch=0;hachureGap=4;fontFamily=Architects Daughter;fontSource=https%3A%2F%2Ffonts.googleapis.com%2Fcss%3Ffamily%3DArchitects%2BDaughter;fontSize=22;startSize=14;endSize=14;sourcePerimeterSpacing=8;targetPerimeterSpacing=8;curved=1;strokeWidth=5;" parent="1" edge="1">
          <mxGeometry width="50" height="50" relative="1" as="geometry">
            <mxPoint x="780" y="2160" as="sourcePoint" />
            <mxPoint x="790" y="-60" as="targetPoint" />
          </mxGeometry>
        </mxCell>
        <mxCell id="vKSvV3eFEB5RMygRF8wU-9" value="ADMIN" style="text;html=1;align=center;verticalAlign=middle;resizable=0;points=[];autosize=1;strokeColor=none;fillColor=none;rounded=1;sketch=0;hachureGap=4;fontFamily=Architects Daughter;fontSource=https%3A%2F%2Ffonts.googleapis.com%2Fcss%3Ffamily%3DArchitects%2BDaughter;fontSize=35;strokeWidth=1;" parent="1" vertex="1">
          <mxGeometry x="845" y="-60" width="120" height="50" as="geometry" />
        </mxCell>
        <mxCell id="vKSvV3eFEB5RMygRF8wU-11" value="&lt;font style=&quot;font-size: 30px;&quot;&gt;sistem menampilkan tampilan perguruan tinggi &lt;/font&gt;" style="rounded=1;whiteSpace=wrap;html=1;sketch=0;hachureGap=4;fontFamily=Helvetica;fontSize=30;fillColor=#FFFFFF;strokeWidth=1;fontStyle=1" parent="1" vertex="1">
          <mxGeometry x="402.5" y="140" width="310" height="110" as="geometry" />
        </mxCell>
        <mxCell id="BxWsOOp35VxRvSO02YUb-54" style="edgeStyle=orthogonalEdgeStyle;rounded=0;orthogonalLoop=1;jettySize=auto;html=1;entryX=0.5;entryY=0;entryDx=0;entryDy=0;fontFamily=Helvetica;fontSize=30;endArrow=open;endFill=0;startSize=14;endSize=14;sourcePerimeterSpacing=8;targetPerimeterSpacing=8;strokeWidth=3;" edge="1" parent="1" source="vKSvV3eFEB5RMygRF8wU-17" target="vKSvV3eFEB5RMygRF8wU-28">
          <mxGeometry relative="1" as="geometry" />
        </mxCell>
        <mxCell id="vKSvV3eFEB5RMygRF8wU-17" value="&lt;font style=&quot;font-size: 30px;&quot;&gt;user memilih universitas yang tersedia&lt;/font&gt;" style="rounded=1;whiteSpace=wrap;html=1;sketch=0;hachureGap=4;fontFamily=Helvetica;fontSize=30;strokeWidth=1;fontStyle=1" parent="1" vertex="1">
          <mxGeometry x="24.22" y="390" width="221.64" height="120" as="geometry" />
        </mxCell>
        <mxCell id="vKSvV3eFEB5RMygRF8wU-18" value="" style="endArrow=none;html=1;rounded=0;sketch=0;hachureGap=4;fontFamily=Architects Daughter;fontSource=https%3A%2F%2Ffonts.googleapis.com%2Fcss%3Ffamily%3DArchitects%2BDaughter;fontSize=22;startSize=14;endSize=14;sourcePerimeterSpacing=8;targetPerimeterSpacing=8;exitX=1;exitY=0.5;exitDx=0;exitDy=0;exitPerimeter=0;strokeWidth=3;entryX=0.538;entryY=1.026;entryDx=0;entryDy=0;entryPerimeter=0;" parent="1" source="vKSvV3eFEB5RMygRF8wU-19" target="vKSvV3eFEB5RMygRF8wU-11" edge="1">
          <mxGeometry width="50" height="50" relative="1" as="geometry">
            <mxPoint x="510" y="295" as="sourcePoint" />
            <mxPoint x="570" y="260" as="targetPoint" />
          </mxGeometry>
        </mxCell>
        <mxCell id="vKSvV3eFEB5RMygRF8wU-19" value="" style="line;strokeWidth=3;html=1;rounded=1;sketch=0;hachureGap=4;fontFamily=Architects Daughter;fontSource=https%3A%2F%2Ffonts.googleapis.com%2Fcss%3Ffamily%3DArchitects%2BDaughter;fontSize=22;fillColor=#FFFFFF;" parent="1" vertex="1">
          <mxGeometry x="130" y="295" width="440" height="10" as="geometry" />
        </mxCell>
        <mxCell id="vKSvV3eFEB5RMygRF8wU-21" value="" style="endArrow=open;html=1;rounded=0;sketch=0;hachureGap=4;fontFamily=Architects Daughter;fontSource=https%3A%2F%2Ffonts.googleapis.com%2Fcss%3Ffamily%3DArchitects%2BDaughter;fontSize=22;startSize=14;endSize=14;sourcePerimeterSpacing=8;targetPerimeterSpacing=8;exitX=0;exitY=0.5;exitDx=0;exitDy=0;exitPerimeter=0;entryX=0.485;entryY=-0.008;entryDx=0;entryDy=0;endFill=0;strokeWidth=3;entryPerimeter=0;" parent="1" source="vKSvV3eFEB5RMygRF8wU-19" target="vKSvV3eFEB5RMygRF8wU-17" edge="1">
          <mxGeometry width="50" height="50" relative="1" as="geometry">
            <mxPoint x="118.36" y="385" as="sourcePoint" />
            <mxPoint x="288.36" y="370" as="targetPoint" />
          </mxGeometry>
        </mxCell>
        <mxCell id="BxWsOOp35VxRvSO02YUb-56" style="edgeStyle=orthogonalEdgeStyle;rounded=0;orthogonalLoop=1;jettySize=auto;html=1;fontFamily=Helvetica;fontSize=30;endArrow=open;endFill=0;startSize=14;endSize=14;sourcePerimeterSpacing=8;targetPerimeterSpacing=8;strokeWidth=3;" edge="1" parent="1" source="vKSvV3eFEB5RMygRF8wU-28">
          <mxGeometry relative="1" as="geometry">
            <mxPoint x="270" y="750" as="targetPoint" />
          </mxGeometry>
        </mxCell>
        <mxCell id="BxWsOOp35VxRvSO02YUb-57" style="edgeStyle=orthogonalEdgeStyle;rounded=0;orthogonalLoop=1;jettySize=auto;html=1;entryX=0.45;entryY=0.012;entryDx=0;entryDy=0;entryPerimeter=0;fontFamily=Helvetica;fontSize=30;endArrow=open;endFill=0;startSize=14;endSize=14;sourcePerimeterSpacing=8;targetPerimeterSpacing=8;strokeWidth=3;" edge="1" parent="1" source="vKSvV3eFEB5RMygRF8wU-28" target="vKSvV3eFEB5RMygRF8wU-33">
          <mxGeometry relative="1" as="geometry" />
        </mxCell>
        <mxCell id="vKSvV3eFEB5RMygRF8wU-28" value="" style="rhombus;whiteSpace=wrap;html=1;rounded=0;sketch=0;hachureGap=4;fontFamily=Architects Daughter;fontSource=https%3A%2F%2Ffonts.googleapis.com%2Fcss%3Ffamily%3DArchitects%2BDaughter;fontSize=22;strokeWidth=1;fillColor=#FFFFFF;" parent="1" vertex="1">
          <mxGeometry x="83.4" y="634.72" width="103.28" height="50" as="geometry" />
        </mxCell>
        <mxCell id="vKSvV3eFEB5RMygRF8wU-33" value="&lt;font style=&quot;font-size: 32px&quot;&gt;user mengecek pilihan prodi yang ada&lt;/font&gt;" style="rounded=1;whiteSpace=wrap;html=1;sketch=0;hachureGap=4;fontFamily=Helvetica;fontSize=30;strokeWidth=1;fillColor=#FFFFFF;fontStyle=1" parent="1" vertex="1">
          <mxGeometry x="-190" y="747.5" width="250" height="135" as="geometry" />
        </mxCell>
        <mxCell id="vKSvV3eFEB5RMygRF8wU-36" value="&lt;font style=&quot;font-size: 31px&quot;&gt;user melakukan pendaftaran&lt;/font&gt;" style="rounded=1;whiteSpace=wrap;html=1;sketch=0;hachureGap=4;fontFamily=Helvetica;fontSize=30;strokeWidth=1;fillColor=#FFFFFF;fontStyle=1" parent="1" vertex="1">
          <mxGeometry x="180" y="750" width="180" height="120" as="geometry" />
        </mxCell>
        <mxCell id="vKSvV3eFEB5RMygRF8wU-37" value="Cek Prodi" style="text;html=1;align=center;verticalAlign=middle;resizable=0;points=[];autosize=1;strokeColor=none;fillColor=none;rounded=0;sketch=0;hachureGap=4;fontFamily=Helvetica;fontSize=30;strokeWidth=1;fontStyle=1" parent="1" vertex="1">
          <mxGeometry x="-90" y="594.72" width="160" height="40" as="geometry" />
        </mxCell>
        <mxCell id="vKSvV3eFEB5RMygRF8wU-38" value="Daftar" style="text;html=1;align=center;verticalAlign=middle;resizable=0;points=[];autosize=1;strokeColor=none;fillColor=none;rounded=0;sketch=0;hachureGap=4;fontFamily=Helvetica;fontSize=30;rotation=0;strokeWidth=1;fontStyle=1" parent="1" vertex="1">
          <mxGeometry x="190" y="594.72" width="100" height="40" as="geometry" />
        </mxCell>
        <mxCell id="vKSvV3eFEB5RMygRF8wU-39" value="&lt;font style=&quot;font-size: 30px;&quot;&gt;sistem menampilkan form pendaftaran&lt;/font&gt;" style="rounded=1;whiteSpace=wrap;html=1;sketch=0;hachureGap=4;fontFamily=Helvetica;fontSize=30;strokeWidth=1;fillColor=#FFFFFF;fontStyle=1" parent="1" vertex="1">
          <mxGeometry x="426.56" y="1150" width="292.5" height="100" as="geometry" />
        </mxCell>
        <mxCell id="vKSvV3eFEB5RMygRF8wU-44" value="" style="endArrow=none;html=1;rounded=0;sketch=0;hachureGap=4;fontFamily=Architects Daughter;fontSource=https%3A%2F%2Ffonts.googleapis.com%2Fcss%3Ffamily%3DArchitects%2BDaughter;fontSize=22;startSize=14;endSize=14;sourcePerimeterSpacing=8;targetPerimeterSpacing=8;exitX=1;exitY=0.5;exitDx=0;exitDy=0;exitPerimeter=0;strokeWidth=1;" parent="1" source="vKSvV3eFEB5RMygRF8wU-45" edge="1">
          <mxGeometry width="50" height="50" relative="1" as="geometry">
            <mxPoint x="580" y="1280" as="sourcePoint" />
            <mxPoint x="580" y="1250" as="targetPoint" />
          </mxGeometry>
        </mxCell>
        <mxCell id="vKSvV3eFEB5RMygRF8wU-45" value="" style="line;strokeWidth=3;html=1;rounded=1;sketch=0;hachureGap=4;fontFamily=Architects Daughter;fontSource=https%3A%2F%2Ffonts.googleapis.com%2Fcss%3Ffamily%3DArchitects%2BDaughter;fontSize=22;fillColor=#FFFFFF;" parent="1" vertex="1">
          <mxGeometry x="120" y="1280" width="460" height="10" as="geometry" />
        </mxCell>
        <mxCell id="vKSvV3eFEB5RMygRF8wU-46" value="" style="endArrow=open;html=1;rounded=0;sketch=0;hachureGap=4;fontFamily=Architects Daughter;fontSource=https%3A%2F%2Ffonts.googleapis.com%2Fcss%3Ffamily%3DArchitects%2BDaughter;fontSize=22;startSize=14;endSize=14;sourcePerimeterSpacing=8;targetPerimeterSpacing=8;endFill=0;exitX=0;exitY=0.5;exitDx=0;exitDy=0;exitPerimeter=0;entryX=0.553;entryY=-0.034;entryDx=0;entryDy=0;entryPerimeter=0;strokeWidth=3;" parent="1" source="vKSvV3eFEB5RMygRF8wU-45" target="vKSvV3eFEB5RMygRF8wU-49" edge="1">
          <mxGeometry width="50" height="50" relative="1" as="geometry">
            <mxPoint x="170" y="1340" as="sourcePoint" />
            <mxPoint x="170" y="1380" as="targetPoint" />
          </mxGeometry>
        </mxCell>
        <mxCell id="BxWsOOp35VxRvSO02YUb-31" style="edgeStyle=orthogonalEdgeStyle;rounded=0;orthogonalLoop=1;jettySize=auto;html=1;fontFamily=Helvetica;fontSize=22;endArrow=open;endFill=0;startSize=14;endSize=14;sourcePerimeterSpacing=8;targetPerimeterSpacing=8;strokeWidth=3;" edge="1" parent="1" source="vKSvV3eFEB5RMygRF8wU-49" target="BxWsOOp35VxRvSO02YUb-30">
          <mxGeometry relative="1" as="geometry" />
        </mxCell>
        <mxCell id="vKSvV3eFEB5RMygRF8wU-49" value="&lt;font style=&quot;font-size: 30px;&quot;&gt;user mengisi dan melengkapi form dengan data diri pribadi lalu mengirimnya&lt;br style=&quot;font-size: 30px;&quot;&gt;&lt;/font&gt;" style="rounded=1;whiteSpace=wrap;html=1;sketch=0;hachureGap=4;fontFamily=Helvetica;fontSize=30;strokeWidth=1;fillColor=#FFFFFF;fontStyle=1" parent="1" vertex="1">
          <mxGeometry x="-90" y="1372.5" width="380" height="145" as="geometry" />
        </mxCell>
        <mxCell id="BxWsOOp35VxRvSO02YUb-4" value="" style="endArrow=none;html=1;rounded=0;startSize=14;endSize=14;sourcePerimeterSpacing=8;targetPerimeterSpacing=8;curved=1;strokeWidth=3;fontSize=22;entryX=0.44;entryY=1;entryDx=0;entryDy=0;entryPerimeter=0;" edge="1" parent="1" target="vKSvV3eFEB5RMygRF8wU-33">
          <mxGeometry width="50" height="50" relative="1" as="geometry">
            <mxPoint x="-80" y="920" as="sourcePoint" />
            <mxPoint x="-80" y="890" as="targetPoint" />
          </mxGeometry>
        </mxCell>
        <mxCell id="BxWsOOp35VxRvSO02YUb-5" value="" style="endArrow=open;html=1;rounded=0;startSize=14;endSize=14;sourcePerimeterSpacing=8;targetPerimeterSpacing=8;curved=1;endFill=0;strokeWidth=3;fontSize=22;entryX=0;entryY=0.75;entryDx=0;entryDy=0;" edge="1" parent="1" target="BxWsOOp35VxRvSO02YUb-6">
          <mxGeometry width="50" height="50" relative="1" as="geometry">
            <mxPoint x="-80" y="920" as="sourcePoint" />
            <mxPoint x="470" y="920" as="targetPoint" />
          </mxGeometry>
        </mxCell>
        <mxCell id="BxWsOOp35VxRvSO02YUb-6" value="&lt;font style=&quot;font-size: 29px&quot;&gt;sistem menampilkan fakultas &amp;amp; prodi yang tersedia pada universitas yang dipilih user&lt;/font&gt;" style="rounded=1;whiteSpace=wrap;html=1;hachureGap=4;strokeWidth=1;fontSize=30;fontStyle=1;fontFamily=Helvetica;" vertex="1" parent="1">
          <mxGeometry x="490" y="750" width="280" height="225" as="geometry" />
        </mxCell>
        <mxCell id="BxWsOOp35VxRvSO02YUb-15" value="&lt;font style=&quot;font-size: 30px;&quot;&gt;setelah selesai mengecek user meng-klik kembali&lt;/font&gt;" style="rounded=1;whiteSpace=wrap;html=1;sketch=0;hachureGap=4;fontFamily=Helvetica;fontSize=30;strokeWidth=1;fillColor=#FFFFFF;fontStyle=1" vertex="1" parent="1">
          <mxGeometry x="-70" y="1060" width="265" height="125" as="geometry" />
        </mxCell>
        <mxCell id="BxWsOOp35VxRvSO02YUb-16" value="" style="endArrow=none;html=1;rounded=0;sketch=0;hachureGap=4;fontFamily=Architects Daughter;fontSource=https%3A%2F%2Ffonts.googleapis.com%2Fcss%3Ffamily%3DArchitects%2BDaughter;fontSize=22;startSize=14;endSize=14;sourcePerimeterSpacing=8;targetPerimeterSpacing=8;entryX=0.5;entryY=1;entryDx=0;entryDy=0;exitX=1;exitY=0.5;exitDx=0;exitDy=0;exitPerimeter=0;strokeWidth=3;" edge="1" parent="1" source="BxWsOOp35VxRvSO02YUb-17" target="BxWsOOp35VxRvSO02YUb-6">
          <mxGeometry width="50" height="50" relative="1" as="geometry">
            <mxPoint x="589.3299999999999" y="1005" as="sourcePoint" />
            <mxPoint x="589.3299999999999" y="965" as="targetPoint" />
          </mxGeometry>
        </mxCell>
        <mxCell id="BxWsOOp35VxRvSO02YUb-17" value="" style="line;strokeWidth=3;html=1;rounded=1;sketch=0;hachureGap=4;fontFamily=Architects Daughter;fontSource=https%3A%2F%2Ffonts.googleapis.com%2Fcss%3Ffamily%3DArchitects%2BDaughter;fontSize=22;fillColor=#FFFFFF;" vertex="1" parent="1">
          <mxGeometry x="60" y="1005" width="570" height="10" as="geometry" />
        </mxCell>
        <mxCell id="BxWsOOp35VxRvSO02YUb-18" value="" style="endArrow=open;html=1;rounded=0;sketch=0;hachureGap=4;fontFamily=Architects Daughter;fontSource=https%3A%2F%2Ffonts.googleapis.com%2Fcss%3Ffamily%3DArchitects%2BDaughter;fontSize=22;startSize=14;endSize=14;sourcePerimeterSpacing=8;targetPerimeterSpacing=8;endFill=0;exitX=0;exitY=0.5;exitDx=0;exitDy=0;exitPerimeter=0;strokeWidth=3;" edge="1" parent="1" source="BxWsOOp35VxRvSO02YUb-17">
          <mxGeometry width="50" height="50" relative="1" as="geometry">
            <mxPoint x="59.329999999999984" y="1010" as="sourcePoint" />
            <mxPoint x="60" y="1060" as="targetPoint" />
          </mxGeometry>
        </mxCell>
        <mxCell id="BxWsOOp35VxRvSO02YUb-23" value="" style="line;strokeWidth=3;html=1;hachureGap=4;fontFamily=Helvetica;fontSize=22;" vertex="1" parent="1">
          <mxGeometry x="200" y="1095" width="250" height="10" as="geometry" />
        </mxCell>
        <mxCell id="BxWsOOp35VxRvSO02YUb-27" value="" style="endArrow=open;html=1;rounded=0;fontFamily=Helvetica;fontSize=22;startSize=14;endSize=14;sourcePerimeterSpacing=8;targetPerimeterSpacing=8;exitX=1;exitY=0.5;exitDx=0;exitDy=0;exitPerimeter=0;endFill=0;strokeWidth=3;entryX=0.175;entryY=1.027;entryDx=0;entryDy=0;entryPerimeter=0;" edge="1" parent="1" source="BxWsOOp35VxRvSO02YUb-23" target="vKSvV3eFEB5RMygRF8wU-11">
          <mxGeometry width="50" height="50" relative="1" as="geometry">
            <mxPoint x="420" y="745" as="sourcePoint" />
            <mxPoint x="470" y="340" as="targetPoint" />
          </mxGeometry>
        </mxCell>
        <mxCell id="BxWsOOp35VxRvSO02YUb-28" value="" style="line;strokeWidth=3;direction=south;html=1;hachureGap=4;fontFamily=Helvetica;fontSize=22;" vertex="1" parent="1">
          <mxGeometry x="270" y="870" width="10" height="340" as="geometry" />
        </mxCell>
        <mxCell id="BxWsOOp35VxRvSO02YUb-29" value="" style="endArrow=open;html=1;rounded=0;fontFamily=Helvetica;fontSize=22;startSize=14;endSize=14;sourcePerimeterSpacing=8;targetPerimeterSpacing=8;exitX=1;exitY=0.5;exitDx=0;exitDy=0;exitPerimeter=0;entryX=-0.002;entryY=0.576;entryDx=0;entryDy=0;entryPerimeter=0;endFill=0;strokeWidth=3;" edge="1" parent="1" source="BxWsOOp35VxRvSO02YUb-28" target="vKSvV3eFEB5RMygRF8wU-39">
          <mxGeometry width="50" height="50" relative="1" as="geometry">
            <mxPoint x="410" y="995" as="sourcePoint" />
            <mxPoint x="460" y="945" as="targetPoint" />
          </mxGeometry>
        </mxCell>
        <mxCell id="BxWsOOp35VxRvSO02YUb-33" style="edgeStyle=orthogonalEdgeStyle;rounded=0;orthogonalLoop=1;jettySize=auto;html=1;fontFamily=Helvetica;fontSize=22;endArrow=open;endFill=0;startSize=14;endSize=14;sourcePerimeterSpacing=8;targetPerimeterSpacing=8;strokeWidth=3;" edge="1" parent="1" source="BxWsOOp35VxRvSO02YUb-30" target="BxWsOOp35VxRvSO02YUb-32">
          <mxGeometry relative="1" as="geometry" />
        </mxCell>
        <mxCell id="BxWsOOp35VxRvSO02YUb-30" value="sistem menerima data dan memproses untuk dikirim ke admin" style="rounded=1;whiteSpace=wrap;html=1;sketch=0;hachureGap=4;fontFamily=Helvetica;fontSize=30;strokeWidth=1;fillColor=#FFFFFF;fontStyle=1" vertex="1" parent="1">
          <mxGeometry x="442.81" y="1360" width="260" height="170" as="geometry" />
        </mxCell>
        <mxCell id="BxWsOOp35VxRvSO02YUb-32" value="admin menerima data yang dikirimkan lalu memberi konfirmasi kepada sistem" style="rounded=1;whiteSpace=wrap;html=1;sketch=0;hachureGap=4;fontFamily=Helvetica;fontSize=30;strokeWidth=1;fillColor=#FFFFFF;fontStyle=1" vertex="1" parent="1">
          <mxGeometry x="850" y="1360" width="290" height="170" as="geometry" />
        </mxCell>
        <mxCell id="BxWsOOp35VxRvSO02YUb-36" value="" style="endArrow=none;html=1;rounded=0;sketch=0;hachureGap=4;fontFamily=Architects Daughter;fontSource=https%3A%2F%2Ffonts.googleapis.com%2Fcss%3Ffamily%3DArchitects%2BDaughter;fontSize=22;startSize=14;endSize=14;sourcePerimeterSpacing=8;targetPerimeterSpacing=8;entryX=0.5;entryY=1;entryDx=0;entryDy=0;exitX=1;exitY=0.5;exitDx=0;exitDy=0;exitPerimeter=0;strokeWidth=3;" edge="1" parent="1" source="BxWsOOp35VxRvSO02YUb-37">
          <mxGeometry width="50" height="50" relative="1" as="geometry">
            <mxPoint x="989.3299999999999" y="1570" as="sourcePoint" />
            <mxPoint x="989.3299999999999" y="1530" as="targetPoint" />
          </mxGeometry>
        </mxCell>
        <mxCell id="BxWsOOp35VxRvSO02YUb-37" value="" style="line;strokeWidth=3;html=1;rounded=1;sketch=0;hachureGap=4;fontFamily=Architects Daughter;fontSource=https%3A%2F%2Ffonts.googleapis.com%2Fcss%3Ffamily%3DArchitects%2BDaughter;fontSize=22;fillColor=#FFFFFF;" vertex="1" parent="1">
          <mxGeometry x="570" y="1570" width="419.33" height="10" as="geometry" />
        </mxCell>
        <mxCell id="BxWsOOp35VxRvSO02YUb-38" value="" style="endArrow=open;html=1;rounded=0;sketch=0;hachureGap=4;fontFamily=Architects Daughter;fontSource=https%3A%2F%2Ffonts.googleapis.com%2Fcss%3Ffamily%3DArchitects%2BDaughter;fontSize=22;startSize=14;endSize=14;sourcePerimeterSpacing=8;targetPerimeterSpacing=8;endFill=0;exitX=0;exitY=0.5;exitDx=0;exitDy=0;exitPerimeter=0;strokeWidth=3;" edge="1" parent="1" source="BxWsOOp35VxRvSO02YUb-37">
          <mxGeometry width="50" height="50" relative="1" as="geometry">
            <mxPoint x="459.33" y="1575" as="sourcePoint" />
            <mxPoint x="570" y="1640" as="targetPoint" />
          </mxGeometry>
        </mxCell>
        <mxCell id="BxWsOOp35VxRvSO02YUb-39" value="&lt;font style=&quot;font-size: 30px;&quot;&gt;sistem memberi pesan notifikasi bahwa data telah terkirim&lt;/font&gt;" style="rounded=1;whiteSpace=wrap;html=1;sketch=0;hachureGap=4;fontFamily=Helvetica;fontSize=30;strokeWidth=1;fillColor=#FFFFFF;fontStyle=1" vertex="1" parent="1">
          <mxGeometry x="420.94" y="1640" width="298.12" height="140" as="geometry" />
        </mxCell>
        <mxCell id="BxWsOOp35VxRvSO02YUb-42" value="" style="endArrow=none;html=1;rounded=0;sketch=0;hachureGap=4;fontFamily=Architects Daughter;fontSource=https%3A%2F%2Ffonts.googleapis.com%2Fcss%3Ffamily%3DArchitects%2BDaughter;fontSize=22;startSize=14;endSize=14;sourcePerimeterSpacing=8;targetPerimeterSpacing=8;entryX=0.5;entryY=1;entryDx=0;entryDy=0;exitX=1;exitY=0.5;exitDx=0;exitDy=0;exitPerimeter=0;strokeWidth=3;" edge="1" parent="1" source="BxWsOOp35VxRvSO02YUb-43">
          <mxGeometry width="50" height="50" relative="1" as="geometry">
            <mxPoint x="569.78" y="1820" as="sourcePoint" />
            <mxPoint x="569.78" y="1780" as="targetPoint" />
          </mxGeometry>
        </mxCell>
        <mxCell id="BxWsOOp35VxRvSO02YUb-43" value="" style="line;strokeWidth=3;html=1;rounded=1;sketch=0;hachureGap=4;fontFamily=Architects Daughter;fontSource=https%3A%2F%2Ffonts.googleapis.com%2Fcss%3Ffamily%3DArchitects%2BDaughter;fontSize=22;fillColor=#FFFFFF;" vertex="1" parent="1">
          <mxGeometry x="180" y="1810" width="390" height="11.1" as="geometry" />
        </mxCell>
        <mxCell id="BxWsOOp35VxRvSO02YUb-44" value="" style="endArrow=open;html=1;rounded=0;sketch=0;hachureGap=4;fontFamily=Architects Daughter;fontSource=https%3A%2F%2Ffonts.googleapis.com%2Fcss%3Ffamily%3DArchitects%2BDaughter;fontSize=22;startSize=14;endSize=14;sourcePerimeterSpacing=8;targetPerimeterSpacing=8;endFill=0;exitX=0;exitY=0.5;exitDx=0;exitDy=0;exitPerimeter=0;strokeWidth=3;entryX=0.5;entryY=0;entryDx=0;entryDy=0;" edge="1" parent="1" source="BxWsOOp35VxRvSO02YUb-43" target="BxWsOOp35VxRvSO02YUb-45">
          <mxGeometry width="50" height="50" relative="1" as="geometry">
            <mxPoint x="39.999999999999986" y="1815" as="sourcePoint" />
            <mxPoint x="177.67" y="1890" as="targetPoint" />
          </mxGeometry>
        </mxCell>
        <mxCell id="BxWsOOp35VxRvSO02YUb-60" style="edgeStyle=orthogonalEdgeStyle;rounded=0;orthogonalLoop=1;jettySize=auto;html=1;fontFamily=Helvetica;fontSize=28;endArrow=open;endFill=0;startSize=14;endSize=14;sourcePerimeterSpacing=8;targetPerimeterSpacing=8;strokeWidth=3;" edge="1" parent="1" source="BxWsOOp35VxRvSO02YUb-45" target="BxWsOOp35VxRvSO02YUb-48">
          <mxGeometry relative="1" as="geometry" />
        </mxCell>
        <mxCell id="BxWsOOp35VxRvSO02YUb-45" value="user kembali ke halaman utama untuk melakukan logout" style="rounded=1;whiteSpace=wrap;html=1;hachureGap=4;fontFamily=Helvetica;fontSize=30;strokeWidth=1;fontStyle=1" vertex="1" parent="1">
          <mxGeometry x="20" y="1870" width="319.22" height="130" as="geometry" />
        </mxCell>
        <mxCell id="BxWsOOp35VxRvSO02YUb-48" value="" style="ellipse;whiteSpace=wrap;html=1;aspect=fixed;hachureGap=4;fontFamily=Helvetica;fontSize=22;strokeWidth=1;" vertex="1" parent="1">
          <mxGeometry x="139.61" y="2070" width="80" height="80" as="geometry" />
        </mxCell>
        <mxCell id="BxWsOOp35VxRvSO02YUb-49" value="" style="ellipse;whiteSpace=wrap;html=1;aspect=fixed;hachureGap=4;fontFamily=Helvetica;fontSize=22;strokeWidth=1;fillColor=#000000;" vertex="1" parent="1">
          <mxGeometry x="154.61" y="2085" width="50" height="50" as="geometry" />
        </mxCell>
      </root>
    </mxGraphModel>
  </diagram>
</mxfile>
